?xml version="1.0" encoding="utf-8"?>
<!-- Generator: Adobe Illustrator 16.0.4, SVG Export Plug-In . SVG Version: 6.00 Build 0)  -->
<!DOCTYPE svg PUBLIC "-//W3C//DTD SVG 1.1//EN" "http://www.w3.org/Graphics/SVG/1.1/DTD/svg11.dtd">
<svg version="1.1" id="Capa_1" xmlns="http://www.w3.org/2000/svg" xmlns:xlink="http://www.w3.org/1999/xlink" x="0px" y="0px"
	 width="16.814px" height="16.285px" viewBox="0 0 16.814 16.285" enable-background="new 0 0 16.814 16.285" xml:space="preserve">
<path d="M9.178,4.777c1.827-1.097,2.804,0.446,1.867,2.193c-0.934,1.746-1.787,2.884-2.233,2.884s-0.789-1.168-1.3-3.21
	C6.984,4.533,6.987,0.731,4.791,1.162C2.721,1.569,0,4.818,0,4.818L0.65,5.67c0,0,1.34-1.056,1.787-0.528
	c0.446,0.528,2.151,6.906,2.721,8.082c0.497,1.031,1.867,2.396,3.371,1.422c1.502-0.975,6.497-5.238,7.392-10.275
	C16.814-0.664,9.91,0.391,9.178,4.777z"/>
</svg>
